<svg xmlns="http://www.w3.org/2000/svg" width="100" height="100" viewBox="0 0 100 100">
  <path d="M96,95h4v1H96v4H95V96H91v-1h4V91h1v4Zm-4,0V91H88v4H84v1h4v4h4V96h4V95H92Zm-8,0V91H80v4H76v1h4v4h4V96h4V95H84Zm-8,0V91H72v4H68v1h4v4h4V96h4V95H76Zm-8,0V91H64v4H60v1h4v4h4V96h4V95H68Zm-8,0V91H56v4H52v1h4v4h4V96h4V95H60Zm-8,0V91H48v4H44v1h4v4h4V96h4V95H52Zm-8,0V91H40v4H36v1h4v4h4V96h4V95H44Zm-8,0V91H32v4H28v1h4v4h4V96h4V95H36Zm-8,0V91H24v4H20v1h4v4h4V96h4V95H28Zm-8,0V91H16v4H12v1h4v4h4V96h4V95H20Zm-8,0V91H8v4H4v1H8v4h4V96h4V95H12Zm-8,0V91H0v4H0v1H4v4h4V96h4V95H4ZM96,87h4v1H96v4H95V88H91v-1h4V83h1v4Zm-4,0V83H88v4H84v1h4v4h4V88h4V87H92Zm-8,0V83H80v4H76v1h4v4h4V88h4V87H84Zm-8,0V83H72v4H68v1h4v4h4V88h4V87H76Zm-8,0V83H64v4H60v1h4v4h4V88h4V87H68Zm-8,0V83H56v4H52v1h4v4h4V88h4V87H60Zm-8,0V83H48v4H44v1h4v4h4V88h4V87H52Zm-8,0V83H40v4H36v1h4v4h4V88h4V87H44Zm-8,0V83H32v4H28v1h4v4h4V88h4V87H36Zm-8,0V83H24v4H20v1h4v4h4V88h4V87H28Zm-8,0V83H16v4H12v1h4v4h4V88h4V87H20Zm-8,0V83H8v4H4v1H8v4h4V88h4V87H12Zm-8,0V83H0v4H0v1H4v4h4V88h4V87H4Z" fill="currentColor" fill-opacity="0.1"/>
</svg>

